<svg xmlns="http://www.w3.org/2000/svg" xmlns:xlink="http://www.w3.org/1999/xlink" width="75" zoomAndPan="magnify" viewBox="0 0 56.25 30.000001" height="40" preserveAspectRatio="xMidYMid meet" version="1.0"><defs><g/><clipPath id="000f605dc0"><path d="M 5.132812 4.308594 L 32.714844 4.308594 L 32.714844 24.632812 L 5.132812 24.632812 Z M 5.132812 4.308594 " clip-rule="nonzero"/></clipPath><clipPath id="5a02c510b8"><path d="M 8.46875 4.570312 L 10.484375 7.867188 L 10.515625 7.898438 C 13.277344 9.628906 15.933594 11.347656 18.660156 13.140625 L 18.742188 13.042969 L 14.410156 8.375 L 14.40625 8.367188 L 10.859375 5.589844 L 10.84375 5.585938 L 8.558594 4.472656 Z M 6.214844 18.347656 L 7.148438 18.417969 L 6.050781 16.992188 L 5.925781 17.042969 L 6.035156 17.984375 C 6.035156 18.007812 6.027344 18.035156 6 18.042969 L 5.132812 18.453125 L 5.171875 18.574219 L 6.183594 18.355469 C 6.191406 18.355469 6.199219 18.355469 6.207031 18.355469 Z M 7.417969 19.417969 L 6.125 19.769531 L 6.074219 19.804688 L 5.609375 20.5 L 5.691406 20.613281 L 6.679688 20.320312 L 6.714844 20.296875 L 7.492188 19.535156 L 7.425781 19.425781 Z M 9.460938 18.492188 L 7.6875 18.183594 L 7.625 18.304688 L 8.34375 18.917969 C 8.367188 18.933594 8.371094 18.960938 8.367188 18.992188 L 8.007812 19.878906 L 8.117188 19.941406 L 8.722656 19.089844 C 8.722656 19.082031 8.730469 19.082031 8.738281 19.074219 L 9.46875 18.492188 Z M 11.097656 17.320312 L 7.074219 16.871094 L 7.042969 16.992188 L 9.671875 17.878906 L 9.722656 17.878906 L 11.105469 17.445312 L 11.089844 17.320312 Z M 11.6875 17.011719 L 12.941406 17.171875 C 13.351562 16.738281 13.65625 16.4375 14.097656 16.035156 L 14.039062 15.914062 L 12.664062 16.117188 L 12.636719 16.125 L 11.933594 16.503906 L 11.894531 16.542969 L 11.6875 17.003906 Z M 9.6875 19.605469 L 11.320312 19.117188 L 11.359375 19.097656 L 12.644531 17.835938 L 12.574219 17.722656 L 10.433594 18.304688 L 10.382812 18.34375 L 9.605469 19.5 L 9.6875 19.609375 Z M 7.351562 21.34375 L 8.035156 21.433594 C 8.238281 21.214844 8.394531 21.066406 8.613281 20.863281 L 8.550781 20.746094 L 7.878906 20.84375 L 7.851562 20.851562 L 7.5 21.035156 L 7.460938 21.074219 L 7.34375 21.335938 Z M 8.746094 22.171875 L 6.632812 21.933594 L 6.605469 22.050781 L 7.984375 22.523438 L 8.035156 22.523438 L 8.753906 22.296875 L 8.738281 22.171875 Z M 8.804688 21.460938 L 10.304688 21.035156 L 10.351562 21.007812 L 10.84375 20.378906 L 10.761719 20.28125 L 8.761719 21.351562 Z M 12.046875 22.171875 L 11.851562 22.277344 C 11.84375 22.277344 11.835938 22.285156 11.828125 22.285156 L 10.214844 22.449219 L 10.164062 22.476562 L 8.34375 24.449219 L 8.417969 24.558594 L 11.484375 23.386719 L 11.515625 23.375 L 13.65625 21.484375 L 13.582031 21.378906 L 12.121094 22.140625 C 12.105469 22.148438 12.089844 22.148438 12.074219 22.148438 C 12.066406 22.164062 12.058594 22.179688 12.046875 22.1875 Z M 12.058594 22.023438 L 14.523438 20.460938 L 14.472656 20.34375 L 12.515625 20.863281 L 12.5 20.863281 L 11.15625 20.941406 L 10.246094 22.179688 L 11.976562 22.058594 L 11.992188 22.050781 C 12.007812 22.042969 12.023438 22.042969 12.039062 22.050781 C 12.046875 22.039062 12.054688 22.03125 12.058594 22.023438 Z M 18.792969 20.328125 L 14.867188 21.3125 L 14.882812 21.433594 L 17.652344 21.351562 L 17.703125 21.335938 L 18.847656 20.445312 L 18.785156 20.328125 Z M 18.496094 17.246094 L 16.398438 17 L 16.382812 17 L 15.0625 16.535156 L 11.753906 19.648438 L 11.8125 19.769531 L 14.914062 19.042969 L 14.925781 19.035156 L 18.519531 17.378906 Z M 16.628906 16.421875 L 18.570312 16.730469 L 18.613281 16.730469 L 19.699219 16.378906 L 19.691406 16.246094 L 15.671875 15.578125 L 15.621094 15.699219 L 16.597656 16.402344 L 16.636719 16.414062 Z M 19.308594 19.425781 L 19.390625 17.46875 L 15.660156 19.253906 L 15.671875 19.386719 L 17.511719 19.828125 L 17.546875 19.828125 Z M 21.0625 18.246094 L 21.546875 16.511719 L 21.4375 16.445312 L 21.316406 16.566406 C 21.308594 16.574219 21.300781 16.574219 21.300781 16.582031 C 21.300781 16.585938 21.292969 16.59375 21.289062 16.59375 L 19.875 18.019531 L 19.855469 18.074219 L 19.757812 19.46875 L 19.882812 19.519531 L 21.054688 18.28125 L 21.078125 18.246094 Z M 23.773438 15.804688 L 22.371094 16.878906 L 22.339844 16.917969 L 21.503906 18.925781 C 21.496094 18.933594 21.496094 18.9375 21.488281 18.945312 L 18.941406 21.023438 L 19.011719 21.132812 L 21.734375 20.007812 L 21.765625 19.984375 L 24.050781 17.5 Z M 24.027344 14.042969 L 23.617188 12.300781 L 23.480469 12.296875 L 21.980469 16.378906 L 22.085938 16.460938 L 23.660156 15.355469 L 23.691406 15.3125 L 24.027344 14.078125 L 24.027344 14.035156 Z M 27.4375 11.980469 L 32.375 10.167969 L 32.34375 10.046875 L 27.050781 11.070312 Z M 27.886719 12.300781 L 25.296875 14.019531 L 25.214844 16.722656 L 25.339844 16.75 L 26.304688 14.378906 C 26.304688 14.371094 26.3125 14.363281 26.3125 14.363281 L 27.96875 12.40625 L 27.886719 12.308594 Z M 25.09375 11.839844 L 24.789062 12.339844 C 24.78125 12.355469 24.773438 12.363281 24.757812 12.363281 L 24.460938 12.472656 C 24.4375 12.480469 24.40625 12.480469 24.394531 12.460938 C 24.371094 12.4375 24.371094 12.398438 24.394531 12.371094 C 24.421875 12.339844 24.453125 12.296875 24.476562 12.25 C 24.488281 12.207031 24.503906 12.160156 24.503906 12.109375 C 24.503906 12.054688 24.496094 12.011719 24.476562 11.96875 C 24.460938 11.921875 24.429688 11.882812 24.394531 11.847656 C 24.363281 11.816406 24.316406 11.789062 24.273438 11.765625 C 24.230469 11.75 24.183594 11.734375 24.132812 11.734375 C 24.078125 11.734375 24.035156 11.742188 23.988281 11.765625 C 23.945312 11.78125 23.90625 11.808594 23.871094 11.847656 C 23.839844 11.878906 23.8125 11.921875 23.789062 11.96875 C 23.773438 12.011719 23.757812 12.054688 23.757812 12.109375 C 23.757812 12.160156 23.765625 12.207031 23.789062 12.25 C 23.804688 12.296875 23.832031 12.332031 23.871094 12.371094 C 23.898438 12.398438 23.9375 12.429688 23.976562 12.445312 C 24.011719 12.460938 24.058594 12.472656 24.101562 12.472656 C 24.125 12.472656 24.148438 12.488281 24.152344 12.511719 C 24.167969 12.542969 24.148438 12.578125 24.117188 12.59375 L 24.058594 12.617188 L 24.4375 13.898438 C 25.066406 13.324219 25.65625 12.742188 26.265625 12.144531 L 26.492188 11.921875 L 26.4375 11.796875 L 25.085938 11.824219 Z M 22.632812 10.472656 L 24.59375 11.027344 L 24.632812 11.027344 L 26.566406 10.699219 L 26.574219 10.5625 L 24.191406 9.980469 L 24.152344 9.980469 L 22.644531 10.339844 L 22.644531 10.472656 Z M 20.621094 13.011719 L 23.445312 11.28125 L 22.070312 10.863281 L 21.101562 11.714844 L 21.078125 11.742188 L 20.519531 12.914062 L 20.617188 13.003906 Z M 20.871094 13.757812 C 20.847656 13.773438 20.816406 13.773438 20.792969 13.757812 L 18.683594 12.152344 L 18.59375 12.242188 L 20.363281 14.371094 C 20.363281 14.378906 20.371094 14.378906 20.371094 14.386719 L 21.25 16.414062 L 23.125 12.355469 L 23.019531 12.265625 L 20.863281 13.75 Z M 14.007812 7.277344 C 15.996094 9.039062 17.90625 10.726562 20.085938 12.332031 L 20.183594 12.242188 L 19.363281 11.011719 L 19.339844 10.988281 L 12.554688 5.839844 L 12.480469 5.925781 C 12.984375 6.375 13.5 6.832031 14.007812 7.277344 Z M 20.035156 15.707031 L 13.851562 12.824219 L 13.761719 12.921875 L 15.03125 14.945312 L 19.996094 15.820312 L 20.035156 15.699219 Z M 13.933594 10.511719 L 11.394531 9.339844 L 11.3125 9.445312 L 13.210938 12.011719 L 13.246094 12.042969 L 19.945312 15.050781 L 20.003906 14.945312 L 13.949219 10.527344 L 13.933594 10.519531 Z M 13.933594 10.511719 " clip-rule="evenodd"/></clipPath><linearGradient x1="38.602163" gradientTransform="matrix(0.74651, 0, 0, 0.74651, 5.13291, 4.471844)" y1="4.162302" x2="-1.274775" gradientUnits="userSpaceOnUse" y2="24.397879" id="1e677d62fb"><stop stop-opacity="1" stop-color="rgb(2.69928%, 27.799988%, 71.398926%)" offset="0"/><stop stop-opacity="1" stop-color="rgb(2.69928%, 27.799988%, 71.398926%)" offset="0.125"/><stop stop-opacity="1" stop-color="rgb(2.69928%, 27.799988%, 71.398926%)" offset="0.1875"/><stop stop-opacity="1" stop-color="rgb(2.69928%, 27.799988%, 71.398926%)" offset="0.21875"/><stop stop-opacity="1" stop-color="rgb(2.69928%, 27.799988%, 71.398926%)" offset="0.234375"/><stop stop-opacity="1" stop-color="rgb(2.722168%, 27.841187%, 71.424866%)" offset="0.242188"/><stop stop-opacity="1" stop-color="rgb(2.902222%, 28.170776%, 71.630859%)" offset="0.246094"/><stop stop-opacity="1" stop-color="rgb(3.060913%, 28.459167%, 71.810913%)" offset="0.25"/><stop stop-opacity="1" stop-color="rgb(3.218079%, 28.747559%, 71.989441%)" offset="0.253906"/><stop stop-opacity="1" stop-color="rgb(3.375244%, 29.03595%, 72.169495%)" offset="0.257812"/><stop stop-opacity="1" stop-color="rgb(3.53241%, 29.322815%, 72.348022%)" offset="0.261719"/><stop stop-opacity="1" stop-color="rgb(3.689575%, 29.611206%, 72.528076%)" offset="0.265625"/><stop stop-opacity="1" stop-color="rgb(3.846741%, 29.898071%, 72.706604%)" offset="0.269531"/><stop stop-opacity="1" stop-color="rgb(4.005432%, 30.186462%, 72.886658%)" offset="0.273438"/><stop stop-opacity="1" stop-color="rgb(4.162598%, 30.474854%, 73.065186%)" offset="0.277344"/><stop stop-opacity="1" stop-color="rgb(4.319763%, 30.763245%, 73.245239%)" offset="0.28125"/><stop stop-opacity="1" stop-color="rgb(4.476929%, 31.05011%, 73.425293%)" offset="0.285156"/><stop stop-opacity="1" stop-color="rgb(4.634094%, 31.338501%, 73.605347%)" offset="0.289062"/><stop stop-opacity="1" stop-color="rgb(4.79126%, 31.626892%, 73.783875%)" offset="0.292969"/><stop stop-opacity="1" stop-color="rgb(4.949951%, 31.915283%, 73.963928%)" offset="0.296875"/><stop stop-opacity="1" stop-color="rgb(5.107117%, 32.202148%, 74.142456%)" offset="0.300781"/><stop stop-opacity="1" stop-color="rgb(5.264282%, 32.49054%, 74.32251%)" offset="0.304688"/><stop stop-opacity="1" stop-color="rgb(5.421448%, 32.777405%, 74.501038%)" offset="0.308594"/><stop stop-opacity="1" stop-color="rgb(5.580139%, 33.065796%, 74.681091%)" offset="0.3125"/><stop stop-opacity="1" stop-color="rgb(5.737305%, 33.354187%, 74.859619%)" offset="0.316406"/><stop stop-opacity="1" stop-color="rgb(5.89447%, 33.642578%, 75.039673%)" offset="0.320312"/><stop stop-opacity="1" stop-color="rgb(6.051636%, 33.929443%, 75.218201%)" offset="0.324219"/><stop stop-opacity="1" stop-color="rgb(6.208801%, 34.217834%, 75.398254%)" offset="0.328125"/><stop stop-opacity="1" stop-color="rgb(6.365967%, 34.506226%, 75.578308%)" offset="0.332031"/><stop stop-opacity="1" stop-color="rgb(6.524658%, 34.794617%, 75.758362%)" offset="0.335938"/><stop stop-opacity="1" stop-color="rgb(6.681824%, 35.081482%, 75.93689%)" offset="0.339844"/><stop stop-opacity="1" stop-color="rgb(6.838989%, 35.369873%, 76.116943%)" offset="0.34375"/><stop stop-opacity="1" stop-color="rgb(6.996155%, 35.658264%, 76.295471%)" offset="0.347656"/><stop stop-opacity="1" stop-color="rgb(7.154846%, 35.946655%, 76.475525%)" offset="0.351563"/><stop stop-opacity="1" stop-color="rgb(7.312012%, 36.233521%, 76.654053%)" offset="0.355469"/><stop stop-opacity="1" stop-color="rgb(7.469177%, 36.521912%, 76.834106%)" offset="0.359375"/><stop stop-opacity="1" stop-color="rgb(7.626343%, 36.808777%, 77.012634%)" offset="0.363281"/><stop stop-opacity="1" stop-color="rgb(7.783508%, 37.097168%, 77.192688%)" offset="0.367188"/><stop stop-opacity="1" stop-color="rgb(7.940674%, 37.385559%, 77.371216%)" offset="0.371094"/><stop stop-opacity="1" stop-color="rgb(8.099365%, 37.67395%, 77.55127%)" offset="0.375"/><stop stop-opacity="1" stop-color="rgb(8.256531%, 37.960815%, 77.731323%)" offset="0.378906"/><stop stop-opacity="1" stop-color="rgb(8.413696%, 38.249207%, 77.911377%)" offset="0.382813"/><stop stop-opacity="1" stop-color="rgb(8.570862%, 38.537598%, 78.089905%)" offset="0.386719"/><stop stop-opacity="1" stop-color="rgb(8.729553%, 38.825989%, 78.269958%)" offset="0.390625"/><stop stop-opacity="1" stop-color="rgb(8.886719%, 39.112854%, 78.448486%)" offset="0.394531"/><stop stop-opacity="1" stop-color="rgb(9.043884%, 39.401245%, 78.62854%)" offset="0.398438"/><stop stop-opacity="1" stop-color="rgb(9.20105%, 39.689636%, 78.807068%)" offset="0.402344"/><stop stop-opacity="1" stop-color="rgb(9.358215%, 39.978027%, 78.987122%)" offset="0.40625"/><stop stop-opacity="1" stop-color="rgb(9.515381%, 40.264893%, 79.165649%)" offset="0.410156"/><stop stop-opacity="1" stop-color="rgb(9.674072%, 40.553284%, 79.345703%)" offset="0.414062"/><stop stop-opacity="1" stop-color="rgb(9.831238%, 40.840149%, 79.524231%)" offset="0.417969"/><stop stop-opacity="1" stop-color="rgb(9.988403%, 41.12854%, 79.704285%)" offset="0.421875"/><stop stop-opacity="1" stop-color="rgb(10.145569%, 41.416931%, 79.884338%)" offset="0.425781"/><stop stop-opacity="1" stop-color="rgb(10.302734%, 41.705322%, 80.064392%)" offset="0.429688"/><stop stop-opacity="1" stop-color="rgb(10.4599%, 41.992188%, 80.24292%)" offset="0.433594"/><stop stop-opacity="1" stop-color="rgb(10.618591%, 42.280579%, 80.422974%)" offset="0.4375"/><stop stop-opacity="1" stop-color="rgb(10.775757%, 42.56897%, 80.601501%)" offset="0.441406"/><stop stop-opacity="1" stop-color="rgb(10.932922%, 42.857361%, 80.781555%)" offset="0.445313"/><stop stop-opacity="1" stop-color="rgb(11.090088%, 43.144226%, 80.960083%)" offset="0.449219"/><stop stop-opacity="1" stop-color="rgb(11.248779%, 43.432617%, 81.140137%)" offset="0.453125"/><stop stop-opacity="1" stop-color="rgb(11.405945%, 43.719482%, 81.318665%)" offset="0.457031"/><stop stop-opacity="1" stop-color="rgb(11.56311%, 44.007874%, 81.498718%)" offset="0.460938"/><stop stop-opacity="1" stop-color="rgb(11.720276%, 44.296265%, 81.677246%)" offset="0.464844"/><stop stop-opacity="1" stop-color="rgb(11.877441%, 44.584656%, 81.8573%)" offset="0.46875"/><stop stop-opacity="1" stop-color="rgb(12.034607%, 44.871521%, 82.037354%)" offset="0.472656"/><stop stop-opacity="1" stop-color="rgb(12.193298%, 45.159912%, 82.217407%)" offset="0.476562"/><stop stop-opacity="1" stop-color="rgb(12.350464%, 45.448303%, 82.395935%)" offset="0.480469"/><stop stop-opacity="1" stop-color="rgb(12.507629%, 45.736694%, 82.575989%)" offset="0.484375"/><stop stop-opacity="1" stop-color="rgb(12.664795%, 46.02356%, 82.754517%)" offset="0.488281"/><stop stop-opacity="1" stop-color="rgb(12.823486%, 46.311951%, 82.93457%)" offset="0.492188"/><stop stop-opacity="1" stop-color="rgb(12.980652%, 46.600342%, 83.113098%)" offset="0.496094"/><stop stop-opacity="1" stop-color="rgb(13.137817%, 46.888733%, 83.293152%)" offset="0.5"/><stop stop-opacity="1" stop-color="rgb(13.294983%, 47.175598%, 83.47168%)" offset="0.503906"/><stop stop-opacity="1" stop-color="rgb(13.452148%, 47.463989%, 83.651733%)" offset="0.507812"/><stop stop-opacity="1" stop-color="rgb(13.609314%, 47.750854%, 83.831787%)" offset="0.511719"/><stop stop-opacity="1" stop-color="rgb(13.768005%, 48.039246%, 84.011841%)" offset="0.515625"/><stop stop-opacity="1" stop-color="rgb(13.925171%, 48.327637%, 84.190369%)" offset="0.519531"/><stop stop-opacity="1" stop-color="rgb(14.082336%, 48.616028%, 84.370422%)" offset="0.523438"/><stop stop-opacity="1" stop-color="rgb(14.239502%, 48.902893%, 84.54895%)" offset="0.527344"/><stop stop-opacity="1" stop-color="rgb(14.398193%, 49.191284%, 84.729004%)" offset="0.53125"/><stop stop-opacity="1" stop-color="rgb(14.555359%, 49.479675%, 84.907532%)" offset="0.535156"/><stop stop-opacity="1" stop-color="rgb(14.712524%, 49.768066%, 85.087585%)" offset="0.539063"/><stop stop-opacity="1" stop-color="rgb(14.86969%, 50.054932%, 85.266113%)" offset="0.542969"/><stop stop-opacity="1" stop-color="rgb(15.026855%, 50.343323%, 85.446167%)" offset="0.546875"/><stop stop-opacity="1" stop-color="rgb(15.184021%, 50.631714%, 85.624695%)" offset="0.550781"/><stop stop-opacity="1" stop-color="rgb(15.342712%, 50.920105%, 85.804749%)" offset="0.554688"/><stop stop-opacity="1" stop-color="rgb(15.499878%, 51.20697%, 85.984802%)" offset="0.558594"/><stop stop-opacity="1" stop-color="rgb(15.657043%, 51.495361%, 86.164856%)" offset="0.5625"/><stop stop-opacity="1" stop-color="rgb(15.814209%, 51.782227%, 86.343384%)" offset="0.566406"/><stop stop-opacity="1" stop-color="rgb(15.9729%, 52.070618%, 86.523438%)" offset="0.570312"/><stop stop-opacity="1" stop-color="rgb(16.130066%, 52.359009%, 86.701965%)" offset="0.574219"/><stop stop-opacity="1" stop-color="rgb(16.287231%, 52.6474%, 86.882019%)" offset="0.578125"/><stop stop-opacity="1" stop-color="rgb(16.444397%, 52.934265%, 87.060547%)" offset="0.582031"/><stop stop-opacity="1" stop-color="rgb(16.601562%, 53.222656%, 87.240601%)" offset="0.585938"/><stop stop-opacity="1" stop-color="rgb(16.758728%, 53.511047%, 87.419128%)" offset="0.589844"/><stop stop-opacity="1" stop-color="rgb(16.917419%, 53.799438%, 87.599182%)" offset="0.59375"/><stop stop-opacity="1" stop-color="rgb(17.074585%, 54.086304%, 87.77771%)" offset="0.597656"/><stop stop-opacity="1" stop-color="rgb(17.23175%, 54.374695%, 87.957764%)" offset="0.601563"/><stop stop-opacity="1" stop-color="rgb(17.388916%, 54.663086%, 88.137817%)" offset="0.605469"/><stop stop-opacity="1" stop-color="rgb(17.546082%, 54.951477%, 88.317871%)" offset="0.609375"/><stop stop-opacity="1" stop-color="rgb(17.703247%, 55.238342%, 88.496399%)" offset="0.613281"/><stop stop-opacity="1" stop-color="rgb(17.861938%, 55.526733%, 88.676453%)" offset="0.617188"/><stop stop-opacity="1" stop-color="rgb(18.019104%, 55.813599%, 88.85498%)" offset="0.621094"/><stop stop-opacity="1" stop-color="rgb(18.17627%, 56.10199%, 89.035034%)" offset="0.625"/><stop stop-opacity="1" stop-color="rgb(18.333435%, 56.390381%, 89.213562%)" offset="0.628906"/><stop stop-opacity="1" stop-color="rgb(18.492126%, 56.678772%, 89.393616%)" offset="0.632812"/><stop stop-opacity="1" stop-color="rgb(18.649292%, 56.965637%, 89.572144%)" offset="0.636719"/><stop stop-opacity="1" stop-color="rgb(18.806458%, 57.254028%, 89.752197%)" offset="0.640625"/><stop stop-opacity="1" stop-color="rgb(18.963623%, 57.542419%, 89.930725%)" offset="0.644531"/><stop stop-opacity="1" stop-color="rgb(19.120789%, 57.830811%, 90.110779%)" offset="0.648438"/><stop stop-opacity="1" stop-color="rgb(19.277954%, 58.117676%, 90.290833%)" offset="0.652344"/><stop stop-opacity="1" stop-color="rgb(19.436646%, 58.406067%, 90.470886%)" offset="0.65625"/><stop stop-opacity="1" stop-color="rgb(19.593811%, 58.692932%, 90.649414%)" offset="0.660156"/><stop stop-opacity="1" stop-color="rgb(19.750977%, 58.981323%, 90.829468%)" offset="0.664062"/><stop stop-opacity="1" stop-color="rgb(19.908142%, 59.269714%, 91.007996%)" offset="0.667969"/><stop stop-opacity="1" stop-color="rgb(20.066833%, 59.558105%, 91.188049%)" offset="0.671875"/><stop stop-opacity="1" stop-color="rgb(20.223999%, 59.844971%, 91.366577%)" offset="0.675781"/><stop stop-opacity="1" stop-color="rgb(20.381165%, 60.133362%, 91.546631%)" offset="0.679688"/><stop stop-opacity="1" stop-color="rgb(20.53833%, 60.421753%, 91.725159%)" offset="0.683594"/><stop stop-opacity="1" stop-color="rgb(20.695496%, 60.710144%, 91.905212%)" offset="0.6875"/><stop stop-opacity="1" stop-color="rgb(20.852661%, 60.997009%, 92.08374%)" offset="0.691406"/><stop stop-opacity="1" stop-color="rgb(21.011353%, 61.2854%, 92.263794%)" offset="0.695312"/><stop stop-opacity="1" stop-color="rgb(21.168518%, 61.573792%, 92.443848%)" offset="0.699219"/><stop stop-opacity="1" stop-color="rgb(21.325684%, 61.862183%, 92.623901%)" offset="0.703125"/><stop stop-opacity="1" stop-color="rgb(21.482849%, 62.149048%, 92.802429%)" offset="0.707031"/><stop stop-opacity="1" stop-color="rgb(21.641541%, 62.437439%, 92.982483%)" offset="0.710937"/><stop stop-opacity="1" stop-color="rgb(21.798706%, 62.724304%, 93.161011%)" offset="0.714844"/><stop stop-opacity="1" stop-color="rgb(21.955872%, 63.012695%, 93.341064%)" offset="0.71875"/><stop stop-opacity="1" stop-color="rgb(22.113037%, 63.301086%, 93.519592%)" offset="0.722656"/><stop stop-opacity="1" stop-color="rgb(22.270203%, 63.589478%, 93.699646%)" offset="0.726562"/><stop stop-opacity="1" stop-color="rgb(22.427368%, 63.876343%, 93.878174%)" offset="0.730469"/><stop stop-opacity="1" stop-color="rgb(22.58606%, 64.164734%, 94.058228%)" offset="0.734375"/><stop stop-opacity="1" stop-color="rgb(22.743225%, 64.453125%, 94.236755%)" offset="0.738281"/><stop stop-opacity="1" stop-color="rgb(22.900391%, 64.741516%, 94.416809%)" offset="0.742188"/><stop stop-opacity="1" stop-color="rgb(23.057556%, 65.028381%, 94.596863%)" offset="0.746094"/><stop stop-opacity="1" stop-color="rgb(23.214722%, 65.316772%, 94.776917%)" offset="0.75"/><stop stop-opacity="1" stop-color="rgb(23.371887%, 65.605164%, 94.955444%)" offset="0.753906"/><stop stop-opacity="1" stop-color="rgb(23.530579%, 65.893555%, 95.135498%)" offset="0.757812"/><stop stop-opacity="1" stop-color="rgb(23.687744%, 66.18042%, 95.314026%)" offset="0.761719"/><stop stop-opacity="1" stop-color="rgb(23.84491%, 66.468811%, 95.49408%)" offset="0.765625"/><stop stop-opacity="1" stop-color="rgb(24.002075%, 66.755676%, 95.672607%)" offset="0.769531"/><stop stop-opacity="1" stop-color="rgb(24.160767%, 67.044067%, 95.852661%)" offset="0.773438"/><stop stop-opacity="1" stop-color="rgb(24.317932%, 67.332458%, 96.031189%)" offset="0.777344"/><stop stop-opacity="1" stop-color="rgb(24.475098%, 67.62085%, 96.211243%)" offset="0.78125"/><stop stop-opacity="1" stop-color="rgb(24.632263%, 67.907715%, 96.389771%)" offset="0.785156"/><stop stop-opacity="1" stop-color="rgb(24.789429%, 68.196106%, 96.569824%)" offset="0.789062"/><stop stop-opacity="1" stop-color="rgb(24.946594%, 68.484497%, 96.749878%)" offset="0.792969"/><stop stop-opacity="1" stop-color="rgb(25.105286%, 68.772888%, 96.929932%)" offset="0.796875"/><stop stop-opacity="1" stop-color="rgb(25.262451%, 69.059753%, 97.108459%)" offset="0.800781"/><stop stop-opacity="1" stop-color="rgb(25.419617%, 69.348145%, 97.288513%)" offset="0.804688"/><stop stop-opacity="1" stop-color="rgb(25.576782%, 69.636536%, 97.467041%)" offset="0.808594"/><stop stop-opacity="1" stop-color="rgb(25.735474%, 69.924927%, 97.647095%)" offset="0.8125"/><stop stop-opacity="1" stop-color="rgb(25.892639%, 70.211792%, 97.825623%)" offset="0.816406"/><stop stop-opacity="1" stop-color="rgb(26.049805%, 70.500183%, 98.005676%)" offset="0.820313"/><stop stop-opacity="1" stop-color="rgb(26.20697%, 70.787048%, 98.184204%)" offset="0.824219"/><stop stop-opacity="1" stop-color="rgb(26.364136%, 71.075439%, 98.364258%)" offset="0.828125"/><stop stop-opacity="1" stop-color="rgb(26.521301%, 71.363831%, 98.542786%)" offset="0.832031"/><stop stop-opacity="1" stop-color="rgb(26.679993%, 71.652222%, 98.722839%)" offset="0.835938"/><stop stop-opacity="1" stop-color="rgb(26.837158%, 71.939087%, 98.902893%)" offset="0.839844"/><stop stop-opacity="1" stop-color="rgb(26.994324%, 72.227478%, 99.082947%)" offset="0.84375"/><stop stop-opacity="1" stop-color="rgb(27.151489%, 72.515869%, 99.261475%)" offset="0.847656"/><stop stop-opacity="1" stop-color="rgb(27.310181%, 72.80426%, 99.441528%)" offset="0.851562"/><stop stop-opacity="1" stop-color="rgb(27.467346%, 73.091125%, 99.620056%)" offset="0.855469"/><stop stop-opacity="1" stop-color="rgb(27.624512%, 73.379517%, 99.80011%)" offset="0.859375"/><stop stop-opacity="1" stop-color="rgb(27.711487%, 73.539734%, 99.899292%)" offset="0.875"/><stop stop-opacity="1" stop-color="rgb(27.799988%, 73.699951%, 100%)" offset="1"/></linearGradient></defs><g clip-path="url(#000f605dc0)"><g clip-path="url(#5a02c510b8)"><path fill="url(#1e677d62fb)" d="M 5.132812 4.472656 L 5.132812 24.558594 L 32.375 24.558594 L 32.375 4.472656 Z M 5.132812 4.472656 " fill-rule="nonzero"/></g></g><g fill="#000000" fill-opacity="1"><g transform="translate(29.907036, 15.996566)"><g><path d="M 0.09375 -1.265625 L 0.640625 -1.265625 L 0.640625 -0.625 C 0.640625 -0.550781 0.648438 -0.503906 0.671875 -0.484375 C 0.703125 -0.460938 0.753906 -0.453125 0.828125 -0.453125 L 1 -0.453125 C 1.082031 -0.453125 1.132812 -0.460938 1.15625 -0.484375 C 1.175781 -0.503906 1.1875 -0.550781 1.1875 -0.625 L 1.1875 -3.84375 L 1.75 -3.84375 L 1.75 -0.546875 C 1.75 -0.179688 1.554688 0 1.171875 0 L 0.65625 0 C 0.28125 0 0.09375 -0.179688 0.09375 -0.546875 Z M 0.09375 -1.265625 "/></g></g></g><g fill="#000000" fill-opacity="1"><g transform="translate(32.783781, 15.996566)"><g><path d="M 0.875 -0.453125 L 1.984375 -0.453125 L 1.984375 0 L 0.3125 0 L 0.3125 -3.84375 L 1.953125 -3.84375 L 1.953125 -3.390625 L 0.875 -3.390625 L 0.875 -2.203125 L 1.765625 -2.203125 L 1.765625 -1.765625 L 0.875 -1.765625 Z M 0.875 -0.453125 "/></g></g></g><g fill="#000000" fill-opacity="1"><g transform="translate(35.715841, 15.996566)"><g><path d="M 3.125 -3.84375 L 3.671875 -3.84375 L 3.0625 0 L 2.296875 0 L 1.859375 -2.890625 L 1.4375 0 L 0.671875 0 L 0.0625 -3.84375 L 0.625 -3.84375 L 1.0625 -0.5 L 1.5625 -3.84375 L 2.171875 -3.84375 L 2.671875 -0.5 Z M 3.125 -3.84375 "/></g></g></g><g fill="#000000" fill-opacity="1"><g transform="translate(40.282781, 15.996566)"><g><path d="M 0.875 -0.453125 L 1.984375 -0.453125 L 1.984375 0 L 0.3125 0 L 0.3125 -3.84375 L 1.953125 -3.84375 L 1.953125 -3.390625 L 0.875 -3.390625 L 0.875 -2.203125 L 1.765625 -2.203125 L 1.765625 -1.765625 L 0.875 -1.765625 Z M 0.875 -0.453125 "/></g></g></g><g fill="#000000" fill-opacity="1"><g transform="translate(43.214841, 15.996566)"><g><path d="M 0.875 -0.453125 L 1.828125 -0.453125 L 1.828125 0 L 0.3125 0 L 0.3125 -3.84375 L 0.875 -3.84375 Z M 0.875 -0.453125 "/></g></g></g><g fill="#545454" fill-opacity="1"><g transform="translate(27.254688, 18.726427)"><g><path d="M 0.796875 -0.34375 L 0.796875 -0.875 C 0.796875 -0.914062 0.785156 -0.941406 0.765625 -0.953125 C 0.753906 -0.960938 0.726562 -0.96875 0.6875 -0.96875 L 0.4375 -0.96875 C 0.226562 -0.96875 0.125 -1.070312 0.125 -1.28125 L 0.125 -1.84375 C 0.125 -2.039062 0.234375 -2.140625 0.453125 -2.140625 L 0.78125 -2.140625 C 1 -2.140625 1.109375 -2.039062 1.109375 -1.84375 L 1.109375 -1.53125 L 0.796875 -1.53125 L 0.796875 -1.796875 C 0.796875 -1.835938 0.785156 -1.863281 0.765625 -1.875 C 0.753906 -1.882812 0.726562 -1.890625 0.6875 -1.890625 L 0.546875 -1.890625 C 0.503906 -1.890625 0.472656 -1.882812 0.453125 -1.875 C 0.441406 -1.863281 0.4375 -1.835938 0.4375 -1.796875 L 0.4375 -1.3125 C 0.4375 -1.269531 0.441406 -1.242188 0.453125 -1.234375 C 0.472656 -1.222656 0.503906 -1.21875 0.546875 -1.21875 L 0.796875 -1.21875 C 1.003906 -1.21875 1.109375 -1.117188 1.109375 -0.921875 L 1.109375 -0.296875 C 1.109375 -0.0976562 1 0 0.78125 0 L 0.453125 0 C 0.242188 0 0.140625 -0.0976562 0.140625 -0.296875 L 0.140625 -0.609375 L 0.453125 -0.609375 L 0.453125 -0.34375 C 0.453125 -0.300781 0.457031 -0.273438 0.46875 -0.265625 C 0.476562 -0.253906 0.503906 -0.25 0.546875 -0.25 L 0.6875 -0.25 C 0.726562 -0.25 0.753906 -0.253906 0.765625 -0.265625 C 0.785156 -0.273438 0.796875 -0.300781 0.796875 -0.34375 Z M 0.796875 -0.34375 "/></g></g></g><g fill="#545454" fill-opacity="1"><g transform="translate(28.951043, 18.726427)"><g><path d="M 1.046875 -2.140625 L 1.046875 -1.890625 L 0.6875 -1.890625 L 0.6875 0 L 0.375 0 L 0.375 -1.890625 L 0.015625 -1.890625 L 0.015625 -2.140625 Z M 1.046875 -2.140625 "/></g></g></g><g fill="#545454" fill-opacity="1"><g transform="translate(30.472622, 18.726427)"><g><path d="M 0.96875 0 L 0.875 -0.5 L 0.421875 -0.5 L 0.34375 0 L 0.046875 0 L 0.421875 -2.140625 L 0.875 -2.140625 L 1.28125 0 Z M 0.46875 -0.75 L 0.84375 -0.75 L 0.640625 -1.875 Z M 0.46875 -0.75 "/></g></g></g><g fill="#545454" fill-opacity="1"><g transform="translate(32.251221, 18.726427)"><g><path d="M 0.78125 0 L 0.46875 0 L 0.46875 -0.671875 L 0.015625 -2.140625 L 0.328125 -2.140625 L 0.625 -0.96875 L 0.90625 -2.140625 L 1.21875 -2.140625 L 0.78125 -0.671875 Z M 0.78125 0 "/></g></g></g><g fill="#545454" fill-opacity="1"><g transform="translate(33.947576, 18.726427)"><g/></g></g><g fill="#545454" fill-opacity="1"><g transform="translate(34.903699, 18.726427)"><g><path d="M 0.484375 -2.140625 L 0.859375 -2.140625 C 1.078125 -2.140625 1.1875 -2.039062 1.1875 -1.84375 L 1.1875 -0.296875 C 1.1875 -0.0976562 1.078125 0 0.859375 0 L 0.484375 0 C 0.265625 0 0.15625 -0.0976562 0.15625 -0.296875 L 0.15625 -1.84375 C 0.15625 -2.039062 0.265625 -2.140625 0.484375 -2.140625 Z M 0.875 -0.34375 L 0.875 -1.796875 C 0.875 -1.835938 0.863281 -1.863281 0.84375 -1.875 C 0.832031 -1.882812 0.804688 -1.890625 0.765625 -1.890625 L 0.578125 -1.890625 C 0.535156 -1.890625 0.503906 -1.882812 0.484375 -1.875 C 0.472656 -1.863281 0.46875 -1.835938 0.46875 -1.796875 L 0.46875 -0.34375 C 0.46875 -0.300781 0.472656 -0.273438 0.484375 -0.265625 C 0.503906 -0.253906 0.535156 -0.25 0.578125 -0.25 L 0.765625 -0.25 C 0.804688 -0.25 0.832031 -0.253906 0.84375 -0.265625 C 0.863281 -0.273438 0.875 -0.300781 0.875 -0.34375 Z M 0.875 -0.34375 "/></g></g></g><g fill="#545454" fill-opacity="1"><g transform="translate(36.709717, 18.726427)"><g><path d="M 0.9375 -2.140625 L 1.21875 -2.140625 L 1.21875 0 L 0.90625 0 L 0.46875 -1.546875 L 0.46875 0 L 0.171875 0 L 0.171875 -2.140625 L 0.5 -2.140625 L 0.9375 -0.640625 Z M 0.9375 -2.140625 "/></g></g></g><g fill="#545454" fill-opacity="1"><g transform="translate(38.573991, 18.726427)"><g/></g></g><g fill="#545454" fill-opacity="1"><g transform="translate(39.530115, 18.726427)"><g><path d="M 1.046875 -2.140625 L 1.046875 -1.890625 L 0.6875 -1.890625 L 0.6875 0 L 0.375 0 L 0.375 -1.890625 L 0.015625 -1.890625 L 0.015625 -2.140625 Z M 1.046875 -2.140625 "/></g></g></g><g fill="#545454" fill-opacity="1"><g transform="translate(41.051694, 18.726427)"><g><path d="M 0.484375 -0.859375 L 0.484375 0 L 0.171875 0 L 0.171875 -2.140625 L 0.875 -2.140625 C 1.09375 -2.140625 1.203125 -2.039062 1.203125 -1.84375 L 1.203125 -1.171875 C 1.203125 -0.992188 1.125 -0.894531 0.96875 -0.875 L 1.3125 0 L 0.96875 0 L 0.65625 -0.859375 Z M 0.484375 -1.890625 L 0.484375 -1.109375 L 0.78125 -1.109375 C 0.820312 -1.109375 0.847656 -1.113281 0.859375 -1.125 C 0.878906 -1.144531 0.890625 -1.175781 0.890625 -1.21875 L 0.890625 -1.796875 C 0.890625 -1.835938 0.878906 -1.863281 0.859375 -1.875 C 0.847656 -1.882812 0.820312 -1.890625 0.78125 -1.890625 Z M 0.484375 -1.890625 "/></g></g></g><g fill="#545454" fill-opacity="1"><g transform="translate(42.867992, 18.726427)"><g><path d="M 0.96875 0 L 0.875 -0.5 L 0.421875 -0.5 L 0.34375 0 L 0.046875 0 L 0.421875 -2.140625 L 0.875 -2.140625 L 1.28125 0 Z M 0.46875 -0.75 L 0.84375 -0.75 L 0.640625 -1.875 Z M 0.46875 -0.75 "/></g></g></g><g fill="#545454" fill-opacity="1"><g transform="translate(44.646592, 18.726427)"><g><path d="M 1.15625 -1.46875 L 0.84375 -1.46875 L 0.84375 -1.796875 C 0.84375 -1.835938 0.835938 -1.863281 0.828125 -1.875 C 0.816406 -1.894531 0.789062 -1.90625 0.75 -1.90625 L 0.578125 -1.90625 C 0.535156 -1.90625 0.503906 -1.894531 0.484375 -1.875 C 0.472656 -1.863281 0.46875 -1.835938 0.46875 -1.796875 L 0.46875 -0.34375 C 0.46875 -0.300781 0.472656 -0.269531 0.484375 -0.25 C 0.503906 -0.238281 0.535156 -0.234375 0.578125 -0.234375 L 0.75 -0.234375 C 0.789062 -0.234375 0.816406 -0.238281 0.828125 -0.25 C 0.835938 -0.269531 0.84375 -0.300781 0.84375 -0.34375 L 0.84375 -0.65625 L 1.15625 -0.65625 L 1.15625 -0.296875 C 1.15625 -0.0976562 1.050781 0 0.84375 0 L 0.484375 0 C 0.265625 0 0.15625 -0.0976562 0.15625 -0.296875 L 0.15625 -1.84375 C 0.15625 -2.039062 0.265625 -2.140625 0.484375 -2.140625 L 0.84375 -2.140625 C 1.050781 -2.140625 1.15625 -2.039062 1.15625 -1.84375 Z M 1.15625 -1.46875 "/></g></g></g><g fill="#545454" fill-opacity="1"><g transform="translate(46.397779, 18.726427)"><g><path d="M 1.28125 -2.140625 L 0.828125 -1.0625 L 1.28125 0 L 0.9375 0 L 0.5 -1.0625 L 0.953125 -2.140625 Z M 0.171875 0 L 0.171875 -2.140625 L 0.484375 -2.140625 L 0.484375 0 Z M 0.171875 0 "/></g></g></g></svg>