<svg xmlns="http://www.w3.org/2000/svg" xmlns:xlink="http://www.w3.org/1999/xlink" width="75" zoomAndPan="magnify" viewBox="0 0 56.25 30.000001" height="40" preserveAspectRatio="xMidYMid meet" version="1.0"><defs><clipPath id="1e8ee97245"><path d="M 8.761719 0.53125 L 46.503906 0.53125 L 46.503906 28.835938 L 8.761719 28.835938 Z M 8.761719 0.53125 " clip-rule="nonzero"/></clipPath><clipPath id="42203f888b"><path d="M 13.417969 0.890625 L 16.234375 5.496094 L 16.273438 5.539062 C 20.132812 7.957031 23.84375 10.355469 27.648438 12.855469 L 27.761719 12.71875 L 21.714844 6.207031 L 21.707031 6.195312 L 16.753906 2.316406 L 16.734375 2.308594 L 13.542969 0.753906 Z M 10.273438 20.132812 L 11.574219 20.226562 L 10.042969 18.234375 L 9.863281 18.308594 L 10.019531 19.621094 C 10.019531 19.652344 10.011719 19.695312 9.96875 19.703125 L 8.761719 20.277344 L 8.8125 20.445312 L 10.230469 20.140625 C 10.242188 20.140625 10.25 20.140625 10.261719 20.140625 Z M 11.949219 21.621094 L 10.148438 22.113281 L 10.074219 22.164062 L 9.425781 23.132812 L 9.542969 23.289062 L 10.917969 22.882812 L 10.96875 22.851562 L 12.054688 21.789062 L 11.960938 21.632812 Z M 14.804688 20.328125 L 12.324219 19.902344 L 12.242188 20.070312 L 13.242188 20.921875 C 13.273438 20.945312 13.285156 20.984375 13.273438 21.027344 L 12.773438 22.269531 L 12.929688 22.351562 L 13.773438 21.164062 C 13.773438 21.152344 13.785156 21.152344 13.792969 21.140625 L 14.816406 20.328125 Z M 17.089844 18.691406 L 11.46875 18.066406 L 11.429688 18.234375 L 15.097656 19.476562 L 15.171875 19.476562 L 17.097656 18.871094 L 17.078125 18.691406 Z M 17.910156 18.265625 L 19.664062 18.484375 C 20.234375 17.878906 20.664062 17.464844 21.277344 16.898438 L 21.195312 16.734375 L 19.277344 17.015625 L 19.234375 17.023438 L 18.253906 17.558594 L 18.203125 17.609375 L 17.910156 18.253906 Z M 15.117188 21.882812 L 17.402344 21.203125 L 17.453125 21.171875 L 19.246094 19.414062 L 19.152344 19.253906 L 16.160156 20.070312 L 16.085938 20.121094 L 15.003906 21.738281 L 15.117188 21.894531 Z M 11.855469 24.3125 L 12.816406 24.4375 C 13.097656 24.132812 13.316406 23.925781 13.617188 23.644531 L 13.535156 23.476562 L 12.597656 23.613281 L 12.554688 23.625 L 12.0625 23.882812 L 12.011719 23.9375 L 11.84375 24.300781 Z M 13.804688 25.46875 L 10.855469 25.132812 L 10.8125 25.300781 L 12.742188 25.957031 L 12.816406 25.957031 L 13.816406 25.644531 L 13.792969 25.46875 Z M 13.886719 24.476562 L 15.984375 23.882812 L 16.046875 23.84375 L 16.734375 22.964844 L 16.621094 22.832031 L 13.824219 24.320312 Z M 18.410156 25.46875 L 18.140625 25.613281 C 18.128906 25.613281 18.121094 25.625 18.109375 25.625 L 15.859375 25.855469 L 15.785156 25.894531 L 13.242188 28.648438 L 13.347656 28.804688 L 17.628906 27.167969 L 17.671875 27.144531 L 20.664062 24.507812 L 20.558594 24.363281 L 18.515625 25.425781 C 18.496094 25.4375 18.472656 25.4375 18.453125 25.4375 C 18.441406 25.457031 18.433594 25.476562 18.410156 25.488281 Z M 18.433594 25.257812 L 21.871094 23.082031 L 21.800781 22.914062 L 19.070312 23.644531 L 19.046875 23.644531 L 17.171875 23.75 L 15.898438 25.476562 L 18.316406 25.3125 L 18.339844 25.300781 C 18.359375 25.289062 18.378906 25.289062 18.402344 25.300781 C 18.410156 25.28125 18.421875 25.269531 18.433594 25.257812 Z M 27.835938 22.894531 L 22.351562 24.269531 L 22.371094 24.4375 L 26.238281 24.320312 L 26.3125 24.300781 L 27.90625 23.058594 L 27.824219 22.894531 Z M 27.417969 18.589844 L 24.488281 18.246094 L 24.46875 18.246094 L 22.621094 17.597656 L 18.003906 21.945312 L 18.089844 22.113281 L 22.414062 21.101562 L 22.433594 21.089844 L 27.449219 18.777344 Z M 24.8125 17.441406 L 27.523438 17.871094 L 27.585938 17.871094 L 29.097656 17.378906 L 29.085938 17.191406 L 23.476562 16.265625 L 23.40625 16.429688 L 24.769531 17.410156 L 24.824219 17.433594 Z M 28.554688 21.632812 L 28.667969 18.902344 L 23.457031 21.394531 L 23.476562 21.582031 L 26.042969 22.195312 L 26.09375 22.195312 Z M 31.003906 19.984375 L 31.679688 17.566406 L 31.523438 17.472656 L 31.359375 17.640625 C 31.347656 17.652344 31.335938 17.652344 31.335938 17.660156 C 31.335938 17.671875 31.328125 17.683594 31.316406 17.683594 L 29.347656 19.671875 L 29.316406 19.746094 L 29.179688 21.695312 L 29.355469 21.769531 L 30.992188 20.039062 L 31.023438 19.984375 Z M 34.785156 16.578125 L 32.828125 18.078125 L 32.785156 18.128906 L 31.617188 20.933594 C 31.609375 20.945312 31.609375 20.953125 31.597656 20.964844 L 28.042969 23.863281 L 28.136719 24.019531 L 31.941406 22.445312 L 31.984375 22.414062 L 35.171875 18.941406 Z M 35.140625 14.117188 L 34.566406 11.6875 L 34.378906 11.679688 L 32.285156 17.378906 L 32.429688 17.496094 L 34.628906 15.953125 L 34.671875 15.890625 L 35.140625 14.167969 L 35.140625 14.105469 Z M 39.90625 11.242188 L 46.792969 8.707031 L 46.753906 8.539062 L 39.363281 9.96875 Z M 40.53125 11.6875 L 36.914062 14.085938 L 36.796875 17.859375 L 36.976562 17.902344 L 38.320312 14.585938 C 38.320312 14.574219 38.332031 14.566406 38.332031 14.566406 L 40.644531 11.835938 L 40.53125 11.699219 Z M 36.632812 11.042969 L 36.203125 11.742188 C 36.195312 11.761719 36.183594 11.773438 36.164062 11.773438 L 35.746094 11.929688 C 35.714844 11.9375 35.671875 11.9375 35.652344 11.90625 C 35.621094 11.875 35.621094 11.824219 35.652344 11.78125 C 35.695312 11.742188 35.734375 11.679688 35.765625 11.617188 C 35.789062 11.554688 35.808594 11.492188 35.808594 11.417969 C 35.808594 11.34375 35.796875 11.28125 35.765625 11.21875 C 35.746094 11.15625 35.703125 11.105469 35.652344 11.054688 C 35.609375 11.011719 35.546875 10.96875 35.484375 10.9375 C 35.421875 10.917969 35.359375 10.894531 35.289062 10.894531 C 35.214844 10.894531 35.152344 10.90625 35.089844 10.9375 C 35.027344 10.960938 34.972656 11 34.921875 11.054688 C 34.878906 11.09375 34.839844 11.15625 34.808594 11.21875 C 34.785156 11.28125 34.765625 11.34375 34.765625 11.417969 C 34.765625 11.492188 34.777344 11.554688 34.808594 11.617188 C 34.828125 11.679688 34.871094 11.730469 34.921875 11.78125 C 34.964844 11.824219 35.015625 11.867188 35.066406 11.886719 C 35.121094 11.90625 35.183594 11.929688 35.246094 11.929688 C 35.277344 11.929688 35.308594 11.949219 35.320312 11.980469 C 35.339844 12.023438 35.308594 12.074219 35.265625 12.09375 L 35.183594 12.125 L 35.714844 13.917969 C 36.589844 13.117188 37.414062 12.304688 38.269531 11.46875 L 38.582031 11.15625 L 38.507812 10.980469 L 36.621094 11.023438 Z M 33.191406 9.136719 L 35.933594 9.90625 L 35.984375 9.90625 L 38.683594 9.449219 L 38.695312 9.261719 L 35.371094 8.445312 L 35.320312 8.445312 L 33.214844 8.949219 L 33.214844 9.136719 Z M 30.386719 12.679688 L 34.328125 10.261719 L 32.410156 9.675781 L 31.054688 10.863281 L 31.023438 10.90625 L 30.242188 12.542969 L 30.378906 12.667969 Z M 30.730469 13.722656 C 30.699219 13.742188 30.660156 13.742188 30.628906 13.722656 L 27.679688 11.480469 L 27.554688 11.605469 L 30.023438 14.574219 C 30.023438 14.585938 30.035156 14.585938 30.035156 14.597656 L 31.265625 17.433594 L 33.878906 11.761719 L 33.734375 11.636719 L 30.722656 13.710938 Z M 21.152344 4.675781 C 23.925781 7.132812 26.59375 9.488281 29.636719 11.730469 L 29.773438 11.605469 L 28.625 9.886719 L 28.59375 9.855469 L 19.121094 2.664062 L 19.015625 2.789062 C 19.726562 3.414062 20.445312 4.046875 21.152344 4.675781 Z M 29.566406 16.441406 L 20.933594 12.417969 L 20.808594 12.554688 L 22.582031 15.378906 L 29.511719 16.597656 L 29.566406 16.429688 Z M 21.050781 9.1875 L 17.503906 7.550781 L 17.390625 7.695312 L 20.039062 11.28125 L 20.089844 11.324219 L 29.441406 15.523438 L 29.523438 15.378906 L 21.070312 9.207031 L 21.050781 9.199219 Z M 21.050781 9.1875 " clip-rule="evenodd"/></clipPath><linearGradient x1="38.3793" gradientTransform="matrix(1.042314, 0, 0, 1.042314, 8.760241, 0.754762)" y1="4.275394" x2="-1.274776" gradientUnits="userSpaceOnUse" y2="24.397879" id="9db55a3bae"><stop stop-opacity="1" stop-color="rgb(2.69928%, 27.799988%, 71.398926%)" offset="0"/><stop stop-opacity="1" stop-color="rgb(2.69928%, 27.799988%, 71.398926%)" offset="0.125"/><stop stop-opacity="1" stop-color="rgb(2.69928%, 27.799988%, 71.398926%)" offset="0.1875"/><stop stop-opacity="1" stop-color="rgb(2.69928%, 27.799988%, 71.398926%)" offset="0.21875"/><stop stop-opacity="1" stop-color="rgb(2.69928%, 27.799988%, 71.398926%)" offset="0.234375"/><stop stop-opacity="1" stop-color="rgb(2.807617%, 27.996826%, 71.522522%)" offset="0.238281"/><stop stop-opacity="1" stop-color="rgb(2.915955%, 28.19519%, 71.646118%)" offset="0.242188"/><stop stop-opacity="1" stop-color="rgb(3.071594%, 28.482056%, 71.824646%)" offset="0.246094"/><stop stop-opacity="1" stop-color="rgb(3.22876%, 28.768921%, 72.003174%)" offset="0.25"/><stop stop-opacity="1" stop-color="rgb(3.384399%, 29.05426%, 72.181702%)" offset="0.253906"/><stop stop-opacity="1" stop-color="rgb(3.541565%, 29.341125%, 72.360229%)" offset="0.257812"/><stop stop-opacity="1" stop-color="rgb(3.69873%, 29.626465%, 72.538757%)" offset="0.261719"/><stop stop-opacity="1" stop-color="rgb(3.855896%, 29.91333%, 72.717285%)" offset="0.265625"/><stop stop-opacity="1" stop-color="rgb(4.011536%, 30.200195%, 72.894287%)" offset="0.269531"/><stop stop-opacity="1" stop-color="rgb(4.168701%, 30.487061%, 73.072815%)" offset="0.273438"/><stop stop-opacity="1" stop-color="rgb(4.324341%, 30.7724%, 73.251343%)" offset="0.277344"/><stop stop-opacity="1" stop-color="rgb(4.481506%, 31.059265%, 73.429871%)" offset="0.28125"/><stop stop-opacity="1" stop-color="rgb(4.637146%, 31.344604%, 73.608398%)" offset="0.285156"/><stop stop-opacity="1" stop-color="rgb(4.794312%, 31.63147%, 73.786926%)" offset="0.289062"/><stop stop-opacity="1" stop-color="rgb(4.951477%, 31.916809%, 73.965454%)" offset="0.292969"/><stop stop-opacity="1" stop-color="rgb(5.108643%, 32.203674%, 74.143982%)" offset="0.296875"/><stop stop-opacity="1" stop-color="rgb(5.264282%, 32.49054%, 74.32251%)" offset="0.300781"/><stop stop-opacity="1" stop-color="rgb(5.421448%, 32.777405%, 74.501038%)" offset="0.304688"/><stop stop-opacity="1" stop-color="rgb(5.577087%, 33.062744%, 74.679565%)" offset="0.308594"/><stop stop-opacity="1" stop-color="rgb(5.734253%, 33.349609%, 74.858093%)" offset="0.3125"/><stop stop-opacity="1" stop-color="rgb(5.889893%, 33.634949%, 75.036621%)" offset="0.316406"/><stop stop-opacity="1" stop-color="rgb(6.047058%, 33.921814%, 75.215149%)" offset="0.320312"/><stop stop-opacity="1" stop-color="rgb(6.204224%, 34.208679%, 75.392151%)" offset="0.324219"/><stop stop-opacity="1" stop-color="rgb(6.361389%, 34.495544%, 75.570679%)" offset="0.328125"/><stop stop-opacity="1" stop-color="rgb(6.517029%, 34.780884%, 75.749207%)" offset="0.332031"/><stop stop-opacity="1" stop-color="rgb(6.674194%, 35.067749%, 75.927734%)" offset="0.335938"/><stop stop-opacity="1" stop-color="rgb(6.829834%, 35.353088%, 76.106262%)" offset="0.339844"/><stop stop-opacity="1" stop-color="rgb(6.987%, 35.639954%, 76.28479%)" offset="0.34375"/><stop stop-opacity="1" stop-color="rgb(7.142639%, 35.926819%, 76.463318%)" offset="0.347656"/><stop stop-opacity="1" stop-color="rgb(7.299805%, 36.213684%, 76.641846%)" offset="0.351562"/><stop stop-opacity="1" stop-color="rgb(7.45697%, 36.499023%, 76.820374%)" offset="0.355469"/><stop stop-opacity="1" stop-color="rgb(7.614136%, 36.785889%, 76.998901%)" offset="0.359375"/><stop stop-opacity="1" stop-color="rgb(7.769775%, 37.071228%, 77.177429%)" offset="0.363281"/><stop stop-opacity="1" stop-color="rgb(7.926941%, 37.358093%, 77.355957%)" offset="0.367188"/><stop stop-opacity="1" stop-color="rgb(8.082581%, 37.644958%, 77.534485%)" offset="0.371094"/><stop stop-opacity="1" stop-color="rgb(8.239746%, 37.931824%, 77.713013%)" offset="0.375"/><stop stop-opacity="1" stop-color="rgb(8.395386%, 38.217163%, 77.890015%)" offset="0.378906"/><stop stop-opacity="1" stop-color="rgb(8.552551%, 38.504028%, 78.068542%)" offset="0.382813"/><stop stop-opacity="1" stop-color="rgb(8.709717%, 38.789368%, 78.24707%)" offset="0.386719"/><stop stop-opacity="1" stop-color="rgb(8.866882%, 39.076233%, 78.425598%)" offset="0.390625"/><stop stop-opacity="1" stop-color="rgb(9.022522%, 39.363098%, 78.604126%)" offset="0.394531"/><stop stop-opacity="1" stop-color="rgb(9.179688%, 39.649963%, 78.782654%)" offset="0.398438"/><stop stop-opacity="1" stop-color="rgb(9.335327%, 39.935303%, 78.961182%)" offset="0.402344"/><stop stop-opacity="1" stop-color="rgb(9.492493%, 40.222168%, 79.139709%)" offset="0.40625"/><stop stop-opacity="1" stop-color="rgb(9.648132%, 40.507507%, 79.318237%)" offset="0.410156"/><stop stop-opacity="1" stop-color="rgb(9.805298%, 40.794373%, 79.496765%)" offset="0.414062"/><stop stop-opacity="1" stop-color="rgb(9.960938%, 41.079712%, 79.675293%)" offset="0.417969"/><stop stop-opacity="1" stop-color="rgb(10.118103%, 41.366577%, 79.853821%)" offset="0.421875"/><stop stop-opacity="1" stop-color="rgb(10.275269%, 41.653442%, 80.032349%)" offset="0.425781"/><stop stop-opacity="1" stop-color="rgb(10.432434%, 41.940308%, 80.210876%)" offset="0.429687"/><stop stop-opacity="1" stop-color="rgb(10.588074%, 42.225647%, 80.387878%)" offset="0.433594"/><stop stop-opacity="1" stop-color="rgb(10.745239%, 42.512512%, 80.566406%)" offset="0.4375"/><stop stop-opacity="1" stop-color="rgb(10.900879%, 42.797852%, 80.744934%)" offset="0.441406"/><stop stop-opacity="1" stop-color="rgb(11.058044%, 43.084717%, 80.923462%)" offset="0.445312"/><stop stop-opacity="1" stop-color="rgb(11.213684%, 43.371582%, 81.10199%)" offset="0.449219"/><stop stop-opacity="1" stop-color="rgb(11.37085%, 43.658447%, 81.280518%)" offset="0.453125"/><stop stop-opacity="1" stop-color="rgb(11.528015%, 43.943787%, 81.459045%)" offset="0.457031"/><stop stop-opacity="1" stop-color="rgb(11.685181%, 44.230652%, 81.637573%)" offset="0.460938"/><stop stop-opacity="1" stop-color="rgb(11.84082%, 44.515991%, 81.816101%)" offset="0.464844"/><stop stop-opacity="1" stop-color="rgb(11.997986%, 44.802856%, 81.994629%)" offset="0.46875"/><stop stop-opacity="1" stop-color="rgb(12.153625%, 45.089722%, 82.173157%)" offset="0.472656"/><stop stop-opacity="1" stop-color="rgb(12.310791%, 45.376587%, 82.351685%)" offset="0.476562"/><stop stop-opacity="1" stop-color="rgb(12.466431%, 45.661926%, 82.530212%)" offset="0.480469"/><stop stop-opacity="1" stop-color="rgb(12.623596%, 45.948792%, 82.70874%)" offset="0.484375"/><stop stop-opacity="1" stop-color="rgb(12.780762%, 46.234131%, 82.885742%)" offset="0.488281"/><stop stop-opacity="1" stop-color="rgb(12.937927%, 46.520996%, 83.06427%)" offset="0.492188"/><stop stop-opacity="1" stop-color="rgb(13.093567%, 46.807861%, 83.242798%)" offset="0.496094"/><stop stop-opacity="1" stop-color="rgb(13.250732%, 47.094727%, 83.421326%)" offset="0.5"/><stop stop-opacity="1" stop-color="rgb(13.406372%, 47.380066%, 83.599854%)" offset="0.503906"/><stop stop-opacity="1" stop-color="rgb(13.563538%, 47.666931%, 83.778381%)" offset="0.507812"/><stop stop-opacity="1" stop-color="rgb(13.719177%, 47.952271%, 83.956909%)" offset="0.511719"/><stop stop-opacity="1" stop-color="rgb(13.876343%, 48.239136%, 84.135437%)" offset="0.515625"/><stop stop-opacity="1" stop-color="rgb(14.033508%, 48.526001%, 84.313965%)" offset="0.519531"/><stop stop-opacity="1" stop-color="rgb(14.190674%, 48.812866%, 84.492493%)" offset="0.523438"/><stop stop-opacity="1" stop-color="rgb(14.346313%, 49.098206%, 84.671021%)" offset="0.527344"/><stop stop-opacity="1" stop-color="rgb(14.503479%, 49.385071%, 84.849548%)" offset="0.53125"/><stop stop-opacity="1" stop-color="rgb(14.659119%, 49.67041%, 85.028076%)" offset="0.535156"/><stop stop-opacity="1" stop-color="rgb(14.816284%, 49.957275%, 85.206604%)" offset="0.539062"/><stop stop-opacity="1" stop-color="rgb(14.971924%, 50.242615%, 85.383606%)" offset="0.542969"/><stop stop-opacity="1" stop-color="rgb(15.129089%, 50.52948%, 85.562134%)" offset="0.546875"/><stop stop-opacity="1" stop-color="rgb(15.284729%, 50.816345%, 85.740662%)" offset="0.550781"/><stop stop-opacity="1" stop-color="rgb(15.441895%, 51.10321%, 85.919189%)" offset="0.554688"/><stop stop-opacity="1" stop-color="rgb(15.59906%, 51.38855%, 86.097717%)" offset="0.558594"/><stop stop-opacity="1" stop-color="rgb(15.756226%, 51.675415%, 86.276245%)" offset="0.5625"/><stop stop-opacity="1" stop-color="rgb(15.911865%, 51.960754%, 86.454773%)" offset="0.566406"/><stop stop-opacity="1" stop-color="rgb(16.069031%, 52.24762%, 86.633301%)" offset="0.570312"/><stop stop-opacity="1" stop-color="rgb(16.22467%, 52.534485%, 86.811829%)" offset="0.574219"/><stop stop-opacity="1" stop-color="rgb(16.381836%, 52.82135%, 86.990356%)" offset="0.578125"/><stop stop-opacity="1" stop-color="rgb(16.537476%, 53.106689%, 87.168884%)" offset="0.582031"/><stop stop-opacity="1" stop-color="rgb(16.694641%, 53.393555%, 87.347412%)" offset="0.585938"/><stop stop-opacity="1" stop-color="rgb(16.851807%, 53.678894%, 87.52594%)" offset="0.589844"/><stop stop-opacity="1" stop-color="rgb(17.008972%, 53.965759%, 87.704468%)" offset="0.59375"/><stop stop-opacity="1" stop-color="rgb(17.164612%, 54.252625%, 87.88147%)" offset="0.597656"/><stop stop-opacity="1" stop-color="rgb(17.321777%, 54.53949%, 88.059998%)" offset="0.601562"/><stop stop-opacity="1" stop-color="rgb(17.477417%, 54.824829%, 88.238525%)" offset="0.605469"/><stop stop-opacity="1" stop-color="rgb(17.634583%, 55.111694%, 88.417053%)" offset="0.609375"/><stop stop-opacity="1" stop-color="rgb(17.790222%, 55.397034%, 88.595581%)" offset="0.613281"/><stop stop-opacity="1" stop-color="rgb(17.947388%, 55.683899%, 88.774109%)" offset="0.617188"/><stop stop-opacity="1" stop-color="rgb(18.104553%, 55.970764%, 88.952637%)" offset="0.621094"/><stop stop-opacity="1" stop-color="rgb(18.261719%, 56.257629%, 89.131165%)" offset="0.625"/><stop stop-opacity="1" stop-color="rgb(18.417358%, 56.542969%, 89.309692%)" offset="0.628906"/><stop stop-opacity="1" stop-color="rgb(18.574524%, 56.829834%, 89.48822%)" offset="0.632812"/><stop stop-opacity="1" stop-color="rgb(18.730164%, 57.115173%, 89.666748%)" offset="0.636719"/><stop stop-opacity="1" stop-color="rgb(18.887329%, 57.402039%, 89.845276%)" offset="0.640625"/><stop stop-opacity="1" stop-color="rgb(19.042969%, 57.688904%, 90.023804%)" offset="0.644531"/><stop stop-opacity="1" stop-color="rgb(19.200134%, 57.975769%, 90.202332%)" offset="0.648438"/><stop stop-opacity="1" stop-color="rgb(19.3573%, 58.261108%, 90.379333%)" offset="0.652344"/><stop stop-opacity="1" stop-color="rgb(19.514465%, 58.547974%, 90.557861%)" offset="0.65625"/><stop stop-opacity="1" stop-color="rgb(19.670105%, 58.833313%, 90.736389%)" offset="0.660156"/><stop stop-opacity="1" stop-color="rgb(19.827271%, 59.120178%, 90.914917%)" offset="0.664062"/><stop stop-opacity="1" stop-color="rgb(19.98291%, 59.405518%, 91.093445%)" offset="0.667969"/><stop stop-opacity="1" stop-color="rgb(20.140076%, 59.692383%, 91.271973%)" offset="0.671875"/><stop stop-opacity="1" stop-color="rgb(20.295715%, 59.979248%, 91.4505%)" offset="0.675781"/><stop stop-opacity="1" stop-color="rgb(20.452881%, 60.266113%, 91.629028%)" offset="0.679688"/><stop stop-opacity="1" stop-color="rgb(20.610046%, 60.551453%, 91.807556%)" offset="0.683594"/><stop stop-opacity="1" stop-color="rgb(20.767212%, 60.838318%, 91.986084%)" offset="0.6875"/><stop stop-opacity="1" stop-color="rgb(20.922852%, 61.123657%, 92.164612%)" offset="0.691406"/><stop stop-opacity="1" stop-color="rgb(21.080017%, 61.410522%, 92.34314%)" offset="0.695312"/><stop stop-opacity="1" stop-color="rgb(21.235657%, 61.697388%, 92.521667%)" offset="0.699219"/><stop stop-opacity="1" stop-color="rgb(21.392822%, 61.984253%, 92.700195%)" offset="0.703125"/><stop stop-opacity="1" stop-color="rgb(21.548462%, 62.269592%, 92.877197%)" offset="0.707031"/><stop stop-opacity="1" stop-color="rgb(21.705627%, 62.556458%, 93.055725%)" offset="0.710938"/><stop stop-opacity="1" stop-color="rgb(21.861267%, 62.841797%, 93.234253%)" offset="0.714844"/><stop stop-opacity="1" stop-color="rgb(22.018433%, 63.128662%, 93.412781%)" offset="0.71875"/><stop stop-opacity="1" stop-color="rgb(22.175598%, 63.415527%, 93.591309%)" offset="0.722656"/><stop stop-opacity="1" stop-color="rgb(22.332764%, 63.702393%, 93.769836%)" offset="0.726563"/><stop stop-opacity="1" stop-color="rgb(22.488403%, 63.987732%, 93.948364%)" offset="0.730469"/><stop stop-opacity="1" stop-color="rgb(22.645569%, 64.274597%, 94.126892%)" offset="0.734375"/><stop stop-opacity="1" stop-color="rgb(22.801208%, 64.559937%, 94.30542%)" offset="0.738281"/><stop stop-opacity="1" stop-color="rgb(22.958374%, 64.846802%, 94.483948%)" offset="0.742187"/><stop stop-opacity="1" stop-color="rgb(23.114014%, 65.133667%, 94.662476%)" offset="0.746094"/><stop stop-opacity="1" stop-color="rgb(23.271179%, 65.420532%, 94.841003%)" offset="0.75"/><stop stop-opacity="1" stop-color="rgb(23.428345%, 65.705872%, 95.019531%)" offset="0.753906"/><stop stop-opacity="1" stop-color="rgb(23.58551%, 65.992737%, 95.198059%)" offset="0.757812"/><stop stop-opacity="1" stop-color="rgb(23.74115%, 66.278076%, 95.375061%)" offset="0.761719"/><stop stop-opacity="1" stop-color="rgb(23.898315%, 66.564941%, 95.553589%)" offset="0.765625"/><stop stop-opacity="1" stop-color="rgb(24.053955%, 66.851807%, 95.732117%)" offset="0.769531"/><stop stop-opacity="1" stop-color="rgb(24.211121%, 67.138672%, 95.910645%)" offset="0.773437"/><stop stop-opacity="1" stop-color="rgb(24.36676%, 67.424011%, 96.089172%)" offset="0.777344"/><stop stop-opacity="1" stop-color="rgb(24.523926%, 67.710876%, 96.2677%)" offset="0.78125"/><stop stop-opacity="1" stop-color="rgb(24.681091%, 67.996216%, 96.446228%)" offset="0.785156"/><stop stop-opacity="1" stop-color="rgb(24.838257%, 68.283081%, 96.624756%)" offset="0.789062"/><stop stop-opacity="1" stop-color="rgb(24.993896%, 68.569946%, 96.803284%)" offset="0.792969"/><stop stop-opacity="1" stop-color="rgb(25.151062%, 68.856812%, 96.981812%)" offset="0.796875"/><stop stop-opacity="1" stop-color="rgb(25.306702%, 69.142151%, 97.160339%)" offset="0.800781"/><stop stop-opacity="1" stop-color="rgb(25.463867%, 69.429016%, 97.338867%)" offset="0.804688"/><stop stop-opacity="1" stop-color="rgb(25.619507%, 69.714355%, 97.515869%)" offset="0.808594"/><stop stop-opacity="1" stop-color="rgb(25.776672%, 70.001221%, 97.694397%)" offset="0.8125"/><stop stop-opacity="1" stop-color="rgb(25.933838%, 70.28656%, 97.872925%)" offset="0.816406"/><stop stop-opacity="1" stop-color="rgb(26.091003%, 70.573425%, 98.051453%)" offset="0.820312"/><stop stop-opacity="1" stop-color="rgb(26.246643%, 70.860291%, 98.22998%)" offset="0.824219"/><stop stop-opacity="1" stop-color="rgb(26.403809%, 71.147156%, 98.408508%)" offset="0.828125"/><stop stop-opacity="1" stop-color="rgb(26.559448%, 71.432495%, 98.587036%)" offset="0.832031"/><stop stop-opacity="1" stop-color="rgb(26.716614%, 71.71936%, 98.765564%)" offset="0.835938"/><stop stop-opacity="1" stop-color="rgb(26.872253%, 72.0047%, 98.944092%)" offset="0.839844"/><stop stop-opacity="1" stop-color="rgb(27.029419%, 72.291565%, 99.12262%)" offset="0.84375"/><stop stop-opacity="1" stop-color="rgb(27.185059%, 72.57843%, 99.301147%)" offset="0.847656"/><stop stop-opacity="1" stop-color="rgb(27.342224%, 72.865295%, 99.479675%)" offset="0.851562"/><stop stop-opacity="1" stop-color="rgb(27.49939%, 73.150635%, 99.658203%)" offset="0.855469"/><stop stop-opacity="1" stop-color="rgb(27.656555%, 73.4375%, 99.836731%)" offset="0.859375"/><stop stop-opacity="1" stop-color="rgb(27.728271%, 73.568726%, 99.917603%)" offset="0.875"/><stop stop-opacity="1" stop-color="rgb(27.799988%, 73.699951%, 100%)" offset="1"/></linearGradient></defs><g clip-path="url(#1e8ee97245)"><g clip-path="url(#42203f888b)"><path fill="url(#9db55a3bae)" d="M 8.761719 0.753906 L 8.761719 28.804688 L 46.503906 28.804688 L 46.503906 0.753906 Z M 8.761719 0.753906 " fill-rule="nonzero"/></g></g></svg>